<svg width="31" height="31" viewBox="0 0 31 31" fill="none" xmlns="http://www.w3.org/2000/svg">
<circle cx="15.5" cy="15.5" r="15.25" fill="white" stroke="#D7D7D7" stroke-width="0.5"/>
<path d="M15.5 15.5C14.3728 15.5 13.2918 15.0522 12.4948 14.2552C11.6978 13.4582 11.25 12.3772 11.25 11.25C11.25 10.1228 11.6978 9.04183 12.4948 8.2448C13.2918 7.44777 14.3728 7 15.5 7C16.6272 7 17.7082 7.44777 18.5052 8.2448C19.3022 9.04183 19.75 10.1228 19.75 11.25C19.75 12.3772 19.3022 13.4582 18.5052 14.2552C17.7082 15.0522 16.6272 15.5 15.5 15.5ZM15.5 18.6875C18.8851 18.6875 21.9228 19.2942 24 21.9419V24H7V21.9419C9.07719 19.2931 12.1149 18.6875 15.5 18.6875Z" fill="#0290FF"/>
</svg>
